<svg width="25" height="24" viewBox="0 0 25 24" fill="none" xmlns="http://www.w3.org/2000/svg">
<path d="M21.1579 3.43624C18.8897 1.21993 15.8794 0 12.6745 0C9.46965 0 6.4566 1.21993 4.19117 3.43624C1.92575 5.65254 0.678772 8.60026 0.678772 11.7357C0.678772 12.3843 0.732375 13.0246 0.83676 13.6539C0.938323 14.2583 1.08503 14.8517 1.27969 15.4286C1.81572 15.147 2.36303 14.8821 2.92163 14.6392C2.74389 14.0679 2.61694 13.4772 2.54641 12.8673C2.50409 12.4947 2.48152 12.1165 2.48152 11.7357C2.48152 6.23767 7.0547 1.76366 12.6745 1.76366C18.2944 1.76366 22.8676 6.23767 22.8676 11.7357C22.8676 12.1193 22.845 12.4947 22.8027 12.8673C22.7829 12.859 22.7632 12.8507 22.7434 12.8424C22.4528 12.721 22.1594 12.6078 21.866 12.4974C21.8886 12.2463 21.8999 11.9923 21.8999 11.7357C21.8999 6.75932 17.7612 2.71311 12.6774 2.71311C7.59355 2.71311 3.45202 6.75932 3.45202 11.7357C3.45202 11.9923 3.4633 12.2463 3.48587 12.4974C3.53947 13.1074 3.65232 13.698 3.82442 14.2666C4.38302 14.0486 4.95008 13.8526 5.52843 13.676C5.83594 13.5821 6.14627 13.4938 6.46224 13.411C7.04059 13.2592 7.6274 13.1295 8.22268 13.0191C8.09854 12.6106 8.03366 12.18 8.03366 11.7329C8.03366 11.57 8.04212 11.41 8.05905 11.2526C8.30449 8.9701 10.2822 7.18712 12.6802 7.18712C15.0782 7.18712 17.0531 8.9701 17.3013 11.2526C16.9684 11.1947 16.6327 11.1422 16.297 11.0953C15.9895 9.41722 14.4858 8.13657 12.6802 8.13657C10.8746 8.13657 9.37373 9.41446 9.0634 11.0953C9.0239 11.3023 9.00415 11.5148 9.00415 11.7329C9.00415 12.1276 9.06904 12.5057 9.19035 12.8617C9.8082 12.7734 10.4373 12.7072 11.0693 12.6685C10.9028 12.3953 10.8069 12.0751 10.8069 11.7329C10.8069 11.4348 10.8803 11.1533 11.01 10.9021C11.3204 10.3087 11.9523 9.90023 12.6774 9.90023C13.4024 9.90023 14.0344 10.3087 14.3447 10.9021C14.4745 11.1533 14.5478 11.4348 14.5478 11.7329C14.5478 12.0751 14.4519 12.3925 14.2854 12.6685C14.9174 12.7099 15.5465 12.7762 16.1644 12.8617C16.4888 12.9087 16.8104 12.9611 17.132 13.0191C17.7273 13.1295 18.3141 13.2592 18.8925 13.411C19.0448 12.8755 19.1238 12.3125 19.1238 11.7329C19.1238 11.7025 19.1238 11.6722 19.1238 11.6418C19.073 8.20557 16.201 5.42346 12.6774 5.42346C9.15368 5.42346 6.27887 8.20557 6.23091 11.6418C5.90647 11.7246 5.58203 11.8102 5.26041 11.9068C5.26041 11.8488 5.26041 11.7909 5.26041 11.7329C5.26041 7.73085 8.58943 4.47401 12.6802 4.47401C16.7709 4.47401 20.1 7.73085 20.1 11.7329C20.1 11.7909 20.1 11.8488 20.1 11.9068C20.0858 12.5195 19.9927 13.1101 19.8319 13.676C20.4103 13.8526 20.9774 14.0486 21.5359 14.2666C21.8378 14.3853 22.1397 14.5095 22.4359 14.6364C22.9945 14.8793 23.5418 15.1415 24.0779 15.4258C24.2725 14.849 24.4192 14.2556 24.5208 13.6511C24.6252 13.0218 24.6788 12.3815 24.6788 11.7329C24.6788 8.5975 23.4318 5.64978 21.1664 3.43348" fill="#C10230"/>
<path d="M6.7418 16.3919C7.08601 16.2915 7.43307 16.1998 7.78297 16.1166C8.52261 15.9418 9.27646 15.807 10.0417 15.7124C10.9065 15.6035 11.7884 15.549 12.6816 15.549C13.5749 15.549 14.4567 15.6035 15.3215 15.7124C16.0868 15.807 16.8406 15.9446 17.5803 16.1166C17.9302 16.1998 18.2772 16.2915 18.6214 16.3919C19.2331 16.5696 19.8333 16.7731 20.4193 17.0025C20.7294 17.1229 21.0366 17.2519 21.3382 17.3866C21.8986 17.636 22.4476 17.9112 22.9824 18.2065C23.3039 17.6819 23.5855 17.1343 23.8216 16.5696C23.2868 16.2772 22.7406 16.0048 22.1831 15.7526C22.0351 15.6866 21.8901 15.6207 21.7421 15.5576C21.5885 15.4917 21.4349 15.4286 21.2813 15.3684C20.7152 15.142 20.1434 14.9384 19.5659 14.7578C19.2501 14.6604 18.9344 14.5686 18.6158 14.4855C18.0127 14.325 17.401 14.1902 16.7866 14.0784C16.4395 14.0154 16.0896 13.9609 15.7397 13.915C14.7327 13.7832 13.7114 13.7144 12.6788 13.7144C11.6461 13.7144 10.6277 13.7803 9.61783 13.915C9.26793 13.9609 8.91803 14.0154 8.57097 14.0784C7.9565 14.1874 7.34488 14.325 6.7418 14.4855C6.42319 14.5686 6.10742 14.6604 5.79165 14.7578C5.21417 14.9384 4.63953 15.142 4.07627 15.3684C3.92266 15.4315 3.76904 15.4946 3.61543 15.5576C3.4675 15.6207 3.31957 15.6866 3.17449 15.7526C2.61692 16.0048 2.07073 16.2772 1.53592 16.5696C1.77488 17.1343 2.05366 17.6819 2.37512 18.2065C2.5458 18.4845 2.72787 18.7569 2.92131 19.0206C3.28259 19.5166 3.68654 19.9896 4.12463 20.431C4.13032 20.4368 4.13601 20.4425 4.1417 20.4482C4.3892 20.6976 4.64522 20.9327 4.90978 21.1563C5.45597 21.6178 6.0363 22.0278 6.64508 22.3833C8.46002 23.4382 10.5253 24.0001 12.6759 24.0001C14.8266 24.0001 16.8918 23.4382 18.7068 22.3833C19.3156 22.0306 19.8959 21.6207 20.4421 21.1563C20.7066 20.9327 20.9627 20.6948 21.2102 20.4482C21.2158 20.4425 21.2215 20.4368 21.2272 20.431C21.6682 19.9867 22.0693 19.5166 22.4306 19.0206C21.8872 18.7225 21.3268 18.453 20.755 18.2036C20.718 18.1893 20.6839 18.1721 20.6469 18.1549C20.3681 18.0345 20.0865 17.9227 19.8049 17.8166C19.1762 17.5815 18.5389 17.378 17.8932 17.206C17.5063 17.1028 17.1166 17.0111 16.724 16.9337C15.4012 16.6671 14.0471 16.5323 12.6759 16.5323C11.3048 16.5323 9.95067 16.6671 8.62786 16.9337C8.23529 17.0139 7.84556 17.1057 7.45867 17.206C6.81292 17.378 6.17569 17.5815 5.54701 17.8166C5.9851 18.3469 6.48293 18.8257 7.02627 19.2442C7.83133 18.9862 8.65631 18.7827 9.50404 18.6336C10.5367 18.4559 11.5978 18.3613 12.6788 18.3613C13.7598 18.3613 14.8209 18.4559 15.8535 18.6336C16.7012 18.7798 17.5291 18.9862 18.3313 19.2442C18.6954 19.3618 19.0567 19.4908 19.4123 19.6284C19.1221 19.8806 18.8177 20.1186 18.502 20.3393C17.7737 20.8438 16.98 21.2595 16.1351 21.5634C15.0541 21.9532 13.8906 22.1654 12.6788 22.1654C11.4669 22.1654 10.3034 21.9532 9.22241 21.5634C8.37753 21.2566 7.581 20.8438 6.85559 20.3393C6.53982 20.1186 6.23543 19.8835 5.94527 19.6284C5.45313 19.1955 5.00082 18.7196 4.59686 18.2007C4.39204 17.937 4.1986 17.6647 4.01938 17.3837C4.32377 17.249 4.62815 17.12 4.93823 16.9996C5.52709 16.7703 6.12733 16.5667 6.73611 16.389" fill="#C10230"/>
<path d="M12.6788 19.7144C11.2157 19.7144 9.78181 19.9048 8.39307 20.2831C9.65966 21.0128 11.1228 21.4286 12.6788 21.4286C14.2348 21.4286 15.7006 21.0128 16.9645 20.2831C15.5758 19.9075 14.1419 19.7144 12.6788 19.7144Z" fill="#C10230"/>
</svg>
