<svg width="25" height="24" viewBox="0 0 25 24" fill="none" xmlns="http://www.w3.org/2000/svg">
<path d="M4.37979 7.35329C6.40478 7.35329 8.05176 5.70435 8.05176 3.6772C8.05176 3.43288 8.02723 3.19412 7.98151 2.96318C9.39098 2.2235 10.9945 1.80402 12.6939 1.80402C14.3932 1.80402 15.9967 2.2235 17.4062 2.96318C17.3605 3.19412 17.3359 3.43288 17.3359 3.6772C17.3359 5.70435 18.9829 7.35329 21.0079 7.35329C21.251 7.35329 21.4896 7.32875 21.7204 7.28301C22.3326 7.1614 22.8902 6.88806 23.3529 6.50205C23.073 5.95984 22.7508 5.43771 22.3873 4.93901C22.0449 5.31387 21.5532 5.54928 21.0079 5.54928C20.8395 5.54928 20.6767 5.52585 20.5217 5.48457C19.8806 5.31164 19.3743 4.80513 19.2015 4.16251C19.1591 4.00744 19.1368 3.84455 19.1368 3.67609C19.1368 3.12942 19.3721 2.63741 19.7456 2.29491C19.2483 1.9312 18.7265 1.60878 18.1845 1.32763C16.5074 0.460766 14.6352 0 12.6927 0C10.7503 0 8.87915 0.460766 7.20207 1.32763C6.66014 1.60766 6.13828 1.9312 5.64095 2.29491C6.01562 2.63741 6.24979 3.12942 6.24979 3.67609C6.24979 3.84455 6.22749 4.00744 6.18623 4.16251C6.01339 4.80402 5.50714 5.31164 4.86486 5.48457C4.70986 5.52585 4.54706 5.54928 4.37979 5.54928C3.8334 5.54928 3.34165 5.31387 2.99932 4.93901C2.63581 5.43659 2.31355 5.95872 2.03366 6.50205C2.49642 6.88806 3.05396 7.1614 3.66614 7.28301C3.89696 7.32875 4.13559 7.35329 4.37979 7.35329Z" fill="#C10230"/>
<path d="M21.0079 16.6477C18.9829 16.6477 17.3359 18.2966 17.3359 20.3238C17.3359 20.5681 17.3605 20.8058 17.4062 21.0378C15.9967 21.7775 14.3932 22.197 12.6939 22.197C10.9945 22.197 9.39209 21.7775 7.98151 21.0378C8.02723 20.8069 8.05176 20.5681 8.05176 20.3238C8.05176 18.2966 6.40478 16.6477 4.37979 16.6477C4.13559 16.6477 3.89696 16.6722 3.66614 16.718C3.05396 16.8396 2.49642 17.1129 2.03366 17.4978C2.31355 18.04 2.63581 18.5633 2.99932 19.0609C3.34165 18.686 3.8334 18.4506 4.37979 18.4506C4.54706 18.4506 4.70986 18.4729 4.86486 18.5153C5.50714 18.6882 6.01228 19.1947 6.18511 19.8374C6.22637 19.9924 6.24867 20.1553 6.24867 20.3238C6.24867 20.8693 6.01451 21.3625 5.63984 21.705C6.13716 22.0687 6.65902 22.3911 7.20095 22.6711C8.87804 23.5391 10.7503 23.9999 12.6916 23.9999C14.633 23.9999 16.5063 23.5391 18.1834 22.6711C18.7253 22.3911 19.2472 22.0687 19.7445 21.7039C19.371 21.3614 19.1357 20.8693 19.1357 20.3227C19.1357 20.1542 19.158 19.9913 19.1992 19.8363C19.3721 19.1936 19.8783 18.6882 20.5195 18.5153C20.6745 18.4729 20.8373 18.4506 21.0057 18.4506C21.551 18.4506 22.0427 18.686 22.385 19.0609C22.7486 18.5622 23.0708 18.04 23.3507 17.4978C22.8879 17.1129 22.3304 16.8396 21.7182 16.718C21.4874 16.6722 21.2488 16.6477 21.0057 16.6477" fill="#C10230"/>
<path d="M4.37982 15.6771C6.93894 15.6771 9.02191 17.7623 9.02191 20.3238C9.02191 20.3695 9.02191 20.4142 9.01968 20.4599C9.58168 20.7054 10.1716 20.8961 10.7837 21.0267C10.8094 20.7957 10.8228 20.5614 10.8228 20.3249C10.8228 16.7682 7.93248 13.8742 4.37982 13.8742C3.80778 13.8742 3.25247 13.9489 2.72393 14.0895C2.58342 13.4157 2.50871 12.7161 2.50871 12.001C2.50871 11.2859 2.58342 10.5864 2.72393 9.91138C3.25247 10.052 3.80667 10.1278 4.37982 10.1278C7.93248 10.1278 10.8228 7.2338 10.8228 3.67709C10.8228 3.43946 10.8094 3.20628 10.7837 2.97534C10.1716 3.10476 9.58057 3.29554 9.01968 3.54098C9.0208 3.58672 9.02191 3.63135 9.02191 3.67709C9.02191 6.23975 6.94005 8.3238 4.37982 8.3238C3.98954 8.3238 3.61153 8.27583 3.24913 8.18434C2.64921 8.03373 2.09502 7.76597 1.6133 7.40673C1.37467 7.98352 1.18288 8.57929 1.0368 9.18955C0.819363 10.0988 0.707855 11.0404 0.707855 11.9999C0.707855 12.9594 0.820478 13.8999 1.0368 14.8102C1.18288 15.4205 1.37467 16.0163 1.6133 16.593C2.09502 16.2338 2.64921 15.966 3.24913 15.8154C3.61042 15.7239 3.98954 15.676 4.37982 15.676" fill="#C10230"/>
<path d="M24.3499 9.19077C24.2038 8.58051 24.012 7.98475 23.7734 7.40795C23.2905 7.76719 22.7374 8.03495 22.1375 8.18556C21.7762 8.27705 21.3971 8.32502 21.0079 8.32502C18.4477 8.32502 16.3659 6.23986 16.3659 3.67831C16.3659 3.63257 16.3659 3.58794 16.3681 3.5422C15.8061 3.29676 15.2162 3.10598 14.604 2.97656C14.5784 3.2075 14.565 3.44068 14.565 3.67831C14.565 7.23502 17.4553 10.129 21.0091 10.129C21.5811 10.129 22.1353 10.0532 22.6638 9.9126C22.8043 10.5876 22.8791 11.286 22.8791 12.0022C22.8791 12.7185 22.8043 13.4169 22.6638 14.0907C22.1353 13.9502 21.5811 13.8754 21.0091 13.8754C17.4553 13.8754 14.565 16.7694 14.565 20.3261C14.565 20.5638 14.5784 20.7981 14.604 21.0279C15.2162 20.8985 15.8072 20.7066 16.3681 20.4622C16.367 20.4165 16.3659 20.3719 16.3659 20.3261C16.3659 17.7635 18.4488 15.6794 21.0079 15.6794C21.3971 15.6794 21.7762 15.7274 22.1375 15.8189C22.7374 15.9695 23.2916 16.2373 23.7734 16.5965C24.012 16.0197 24.2038 15.4239 24.3499 14.8137C24.5673 13.9033 24.6788 12.9628 24.6788 12.0033C24.6788 11.0439 24.5662 10.1023 24.3499 9.193" fill="#C10230"/>
<path d="M17.036 12.001C15.1404 12.9114 13.6027 14.451 12.6928 16.3487C11.784 14.451 10.2452 12.9114 8.34952 12.001C10.2452 11.0906 11.7829 9.55102 12.6928 7.65328C13.6016 9.55102 15.1404 11.0906 17.036 12.001ZM12.6928 2.77563C12.3716 2.77563 12.0549 2.79237 11.7427 2.82472C11.7751 3.10475 11.7918 3.38925 11.7918 3.6782C11.7918 7.77043 8.4666 11.0995 4.37871 11.0995C4.09102 11.0995 3.80667 11.0828 3.52679 11.0505C3.49445 11.3628 3.47772 11.6808 3.47772 12.001C3.47772 12.3212 3.49445 12.6392 3.52679 12.9515C3.80667 12.9192 4.09102 12.9024 4.37871 12.9024C8.4666 12.9024 11.7918 16.2316 11.7918 20.3238C11.7918 20.6116 11.7751 20.8961 11.7427 21.1762C12.0549 21.2085 12.3716 21.2252 12.6928 21.2252C13.0139 21.2252 13.3306 21.2085 13.6428 21.1762C13.6105 20.8961 13.5938 20.6116 13.5938 20.3238C13.5938 16.2316 16.9189 12.9024 21.0068 12.9024C21.2945 12.9024 21.5789 12.9192 21.8587 12.9515C21.8911 12.6392 21.9078 12.3212 21.9078 12.001C21.9078 11.6808 21.8911 11.3628 21.8587 11.0505C21.5789 11.0828 21.2945 11.0995 21.0068 11.0995C16.9189 11.0995 13.5938 7.77043 13.5938 3.6782C13.5938 3.38925 13.6105 3.10475 13.6428 2.82472C13.3306 2.79237 13.0139 2.77563 12.6928 2.77563Z" fill="#C10230"/>
</svg>
