<svg width="292" height="291" viewBox="0 0 292 291" fill="none" xmlns="http://www.w3.org/2000/svg">
<path d="M249.124 42.491C221.579 15.0818 184.908 0 145.939 0C106.97 0 70.2996 15.0818 42.7543 42.491C15.209 69.9002 0 106.311 0 145.04C0 153.068 0.675956 160.962 1.92648 168.721C3.1432 176.212 4.96829 183.534 7.33414 190.655C13.8571 187.162 20.5153 183.904 27.3087 180.914C25.1456 173.86 23.5909 166.538 22.746 159.014C22.2052 154.412 21.9348 149.743 21.9348 145.007C21.9348 77.0548 77.5661 21.7661 145.939 21.7661C214.312 21.7661 269.944 77.0548 269.944 145.007C269.944 149.743 269.673 154.412 269.132 159.014C268.896 158.913 268.659 158.812 268.423 158.711C264.874 157.233 261.325 155.789 257.743 154.445C258.013 151.355 258.148 148.198 258.148 145.04C258.148 83.5712 207.823 33.5561 145.939 33.5561C84.0553 33.5561 33.7641 83.5712 33.7641 145.04C33.7641 148.198 33.8993 151.355 34.1696 154.445C34.8118 161.97 36.1975 169.292 38.2592 176.312C45.0526 173.625 51.9473 171.207 58.9773 169.023C62.7288 167.848 66.5142 166.773 70.3334 165.765C77.3633 163.884 84.5285 162.272 91.7612 160.928C90.2741 155.89 89.463 150.549 89.463 145.007C89.463 142.991 89.5644 141.01 89.7671 139.061C92.7752 110.88 116.839 88.8448 145.973 88.8448C175.107 88.8448 199.171 110.88 202.179 139.061C198.123 138.322 194.067 137.684 189.978 137.113C186.226 116.355 167.942 100.568 145.973 100.568C124.004 100.568 105.754 116.355 101.968 137.113C101.495 139.666 101.258 142.32 101.258 144.973C101.258 149.844 102.07 154.546 103.523 158.913C111.06 157.838 118.664 157.032 126.37 156.494C124.342 153.102 123.159 149.172 123.159 144.94C123.159 141.245 124.072 137.751 125.66 134.695C129.446 127.372 137.118 122.334 145.939 122.334C154.76 122.334 162.466 127.372 166.218 134.695C167.806 137.785 168.685 141.278 168.685 144.94C168.685 149.172 167.502 153.102 165.474 156.494C173.18 156.998 180.785 157.804 188.322 158.913C192.276 159.484 196.197 160.122 200.083 160.861C207.316 162.205 214.447 163.817 221.511 165.698C223.336 159.081 224.35 152.128 224.35 144.94C224.35 144.57 224.35 144.201 224.35 143.831C223.742 101.34 188.795 66.9779 145.905 66.9779C103.016 66.9779 68.0689 101.34 67.4606 143.831C63.5062 144.839 59.5856 145.914 55.6651 147.089C55.6651 146.384 55.6651 145.679 55.6651 144.94C55.6651 95.4955 96.1549 55.2551 145.905 55.2551C195.656 55.2551 236.18 95.4955 236.18 144.94C236.18 145.645 236.18 146.384 236.18 147.089C236.011 154.647 234.861 161.97 232.935 168.956C239.965 171.14 246.86 173.558 253.653 176.245C257.337 177.69 260.987 179.235 264.604 180.813C271.397 183.836 278.055 187.061 284.578 190.554C286.944 183.433 288.735 176.077 289.986 168.62C291.27 160.861 291.912 152.934 291.912 144.94C291.912 106.211 276.737 69.7658 249.158 42.3902" fill="white"/>
<path d="M74.0054 199.896C78.1799 198.713 82.3543 197.598 86.5967 196.617C95.5566 194.521 104.686 192.899 113.986 191.749C124.473 190.465 135.13 189.789 145.956 189.789C156.783 189.789 167.439 190.465 177.927 191.749C187.192 192.899 196.355 194.521 205.315 196.617C209.558 197.598 213.766 198.713 217.941 199.896C225.339 202.026 232.602 204.46 239.73 207.232C243.497 208.686 247.196 210.207 250.862 211.829C257.649 214.838 264.301 218.083 270.784 221.633C274.687 215.345 278.081 208.821 280.965 202.06C274.483 198.544 267.899 195.299 261.111 192.29C259.346 191.513 257.548 190.735 255.749 189.958C253.882 189.18 252.049 188.437 250.183 187.693C243.327 184.988 236.404 182.521 229.412 180.357C225.611 179.174 221.776 178.092 217.907 177.078C210.61 175.151 203.211 173.529 195.745 172.21C191.536 171.467 187.294 170.824 183.051 170.25C170.833 168.661 158.48 167.849 145.99 167.849C133.5 167.849 121.113 168.661 108.895 170.25C104.652 170.79 100.41 171.467 96.2015 172.21C88.7349 173.529 81.3701 175.151 74.0393 177.078C70.1702 178.092 66.3351 179.174 62.534 180.357C55.5425 182.521 48.585 184.955 41.7293 187.693C39.8627 188.437 37.9961 189.18 36.1633 189.958C34.3646 190.701 32.5997 191.479 30.801 192.29C24.0471 195.299 17.429 198.578 10.9467 202.06C13.8315 208.821 17.2254 215.379 21.1284 221.633C23.1986 224.946 25.4047 228.225 27.7465 231.368C32.1246 237.318 37.0118 242.963 42.3402 248.271C42.4081 248.338 42.476 248.406 42.5439 248.474C45.5305 251.448 48.6529 254.288 51.8432 256.959C58.4613 262.503 65.4867 267.404 72.8854 271.63C94.8778 284.273 119.891 291 145.956 291C172.021 291 197.034 284.273 219.027 271.63C226.392 267.37 233.451 262.469 240.035 256.959C243.225 254.288 246.348 251.448 249.368 248.474C249.436 248.406 249.504 248.338 249.572 248.271C254.9 242.963 259.788 237.318 264.166 231.368C257.581 227.819 250.794 224.574 243.87 221.599C243.429 221.396 242.988 221.227 242.546 221.024C239.187 219.604 235.759 218.252 232.331 217.001C224.695 214.162 216.99 211.728 209.151 209.7C204.467 208.483 199.749 207.367 194.998 206.421C178.979 203.209 162.586 201.62 145.956 201.62C129.326 201.62 112.933 203.243 96.9142 206.421C92.1627 207.367 87.4452 208.449 82.7616 209.7C74.9217 211.762 67.2175 214.196 59.5813 217.001C64.9097 223.323 70.9169 229.07 77.5011 234.107C87.2416 231.03 97.2536 228.563 107.537 226.805C120.027 224.675 132.89 223.526 145.99 223.526C159.09 223.526 171.953 224.641 184.443 226.805C194.692 228.563 204.738 230.997 214.479 234.107C218.891 235.526 223.269 237.048 227.545 238.704C224.05 241.747 220.35 244.586 216.515 247.223C207.691 253.274 198.086 258.243 187.837 261.894C174.736 266.559 160.652 269.128 145.956 269.128C131.26 269.128 117.176 266.559 104.075 261.894C93.8257 258.243 84.221 253.274 75.3969 247.223C71.5617 244.586 67.8963 241.747 64.3667 238.704C58.3934 233.532 52.9292 227.819 48.0081 221.599C45.5305 218.455 43.1887 215.176 41.0166 211.796C44.682 210.173 48.4153 208.652 52.1486 207.198C59.2758 204.46 66.5388 201.992 73.9375 199.863" fill="white"/>
<path d="M145.956 235.354C126.943 235.354 108.338 237.783 90.3103 242.607C106.743 251.918 125.721 257.248 145.956 257.248C166.191 257.248 185.17 251.918 201.602 242.607C183.574 237.783 164.935 235.354 145.956 235.354Z" fill="white"/>
</svg>
