<svg width="11" height="11" viewBox="0 0 11 11" fill="none" xmlns="http://www.w3.org/2000/svg">
<g clip-path="url(#clip0_4_315)">
<path d="M8.40407 0.922677H8.01568V0.529503C8.01568 0.421556 7.97282 0.318031 7.89652 0.241701C7.82023 0.165372 7.71675 0.12249 7.60885 0.12249C7.50095 0.12249 7.39747 0.165372 7.32118 0.241701C7.24488 0.318031 7.20202 0.421556 7.20202 0.529503V0.922677H3.21235V0.529503C3.21235 0.421556 3.16949 0.318031 3.09319 0.241701C3.01689 0.165372 2.91341 0.12249 2.80552 0.12249C2.69762 0.12249 2.59414 0.165372 2.51784 0.241701C2.44155 0.318031 2.39868 0.421556 2.39868 0.529503V0.922677H2.01084C1.47773 0.923323 0.966639 1.13548 0.589674 1.51261C0.212709 1.88974 0.000645976 2.40106 0 2.93441V8.52595C0.000645976 9.05929 0.212709 9.57061 0.589674 9.94774C0.966639 10.3249 1.47773 10.537 2.01084 10.5377H8.40407C8.93718 10.537 9.44827 10.3249 9.82524 9.94774C10.2022 9.57061 10.4143 9.05929 10.4149 8.52595V2.93441C10.4143 2.40106 10.2022 1.88974 9.82524 1.51261C9.44827 1.13548 8.93718 0.923323 8.40407 0.922677ZM2.01084 1.7367H2.39923V2.53011C2.39923 2.63805 2.44209 2.74158 2.51838 2.81791C2.59468 2.89424 2.69816 2.93712 2.80606 2.93712C2.91396 2.93712 3.01744 2.89424 3.09373 2.81791C3.17003 2.74158 3.21289 2.63805 3.21289 2.53011V1.73643H7.20229V2.52983C7.20229 2.63778 7.24515 2.74131 7.32145 2.81764C7.39774 2.89397 7.50122 2.93685 7.60912 2.93685C7.71702 2.93685 7.8205 2.89397 7.8968 2.81764C7.97309 2.74131 8.01595 2.63778 8.01595 2.52983V1.73643H8.40434C8.72172 1.73693 9.02595 1.86333 9.25032 2.0879C9.47469 2.31247 9.60089 2.61689 9.60124 2.93441V3.32297H0.813665V2.93441C0.814024 2.61679 0.940298 2.31229 1.16478 2.08771C1.38927 1.86312 1.69364 1.73679 2.01111 1.73643L2.01084 1.7367ZM8.40407 9.72392H2.01084C1.69341 9.72349 1.38912 9.59713 1.16469 9.37255C0.94026 9.14797 0.814024 8.84351 0.813665 8.52595V4.13672H9.60124V8.52595C9.60089 8.84356 9.47461 9.14806 9.25012 9.37265C9.02564 9.59723 8.72127 9.72356 8.4038 9.72392H8.40407ZM3.6124 5.7371C3.6124 5.84504 3.56954 5.94857 3.49324 6.0249C3.41695 6.10123 3.31347 6.14411 3.20557 6.14411H2.40601C2.29811 6.14411 2.19463 6.10123 2.11833 6.0249C2.04204 5.94857 1.99917 5.84504 1.99917 5.7371C1.99917 5.62915 2.04204 5.52562 2.11833 5.44929C2.19463 5.37296 2.29811 5.33008 2.40601 5.33008H3.20584C3.31374 5.33008 3.41722 5.37296 3.49351 5.44929C3.56981 5.52562 3.61267 5.62915 3.61267 5.7371H3.6124ZM8.41546 5.7371C8.41546 5.84504 8.3726 5.94857 8.29631 6.0249C8.22001 6.10123 8.11653 6.14411 8.00863 6.14411H7.20907C7.10117 6.14411 6.99769 6.10123 6.9214 6.0249C6.8451 5.94857 6.80224 5.84504 6.80224 5.7371C6.80224 5.62915 6.8451 5.52562 6.9214 5.44929C6.99769 5.37296 7.10117 5.33008 7.20907 5.33008H8.0089C8.1168 5.33008 8.22028 5.37296 8.29658 5.44929C8.37287 5.52562 8.41574 5.62915 8.41574 5.7371H8.41546ZM6.01163 5.7371C6.01163 5.84504 5.96876 5.94857 5.89247 6.0249C5.81617 6.10123 5.71269 6.14411 5.60479 6.14411H4.80523C4.69733 6.14411 4.59385 6.10123 4.51756 6.0249C4.44126 5.94857 4.3984 5.84504 4.3984 5.7371C4.3984 5.62915 4.44126 5.52562 4.51756 5.44929C4.59385 5.37296 4.69733 5.33008 4.80523 5.33008H5.60507C5.71296 5.33008 5.81644 5.37296 5.89274 5.44929C5.96904 5.52562 6.0119 5.62915 6.0119 5.7371H6.01163ZM3.6124 8.13739C3.6124 8.24533 3.56954 8.34886 3.49324 8.42519C3.41695 8.50152 3.31347 8.5444 3.20557 8.5444H2.40601C2.29811 8.5444 2.19463 8.50152 2.11833 8.42519C2.04204 8.34886 1.99917 8.24533 1.99917 8.13739C1.99917 8.02944 2.04204 7.92591 2.11833 7.84958C2.19463 7.77325 2.29811 7.73037 2.40601 7.73037H3.20584C3.31374 7.73037 3.41722 7.77325 3.49351 7.84958C3.56981 7.92591 3.61267 8.02944 3.61267 8.13739H3.6124ZM8.41546 8.13739C8.41546 8.24533 8.3726 8.34886 8.29631 8.42519C8.22001 8.50152 8.11653 8.5444 8.00863 8.5444H7.20907C7.10117 8.5444 6.99769 8.50152 6.9214 8.42519C6.8451 8.34886 6.80224 8.24533 6.80224 8.13739C6.80224 8.02944 6.8451 7.92591 6.9214 7.84958C6.99769 7.77325 7.10117 7.73037 7.20907 7.73037H8.0089C8.1168 7.73037 8.22028 7.77325 8.29658 7.84958C8.37287 7.92591 8.41574 8.02944 8.41574 8.13739H8.41546ZM6.01163 8.13739C6.01163 8.24533 5.96876 8.34886 5.89247 8.42519C5.81617 8.50152 5.71269 8.5444 5.60479 8.5444H4.80523C4.69733 8.5444 4.59385 8.50152 4.51756 8.42519C4.44126 8.34886 4.3984 8.24533 4.3984 8.13739C4.3984 8.02944 4.44126 7.92591 4.51756 7.84958C4.59385 7.77325 4.69733 7.73037 4.80523 7.73037H5.60507C5.71296 7.73037 5.81644 7.77325 5.89274 7.84958C5.96904 7.92591 6.0119 8.02944 6.0119 8.13739H6.01163Z" fill="#3883B9"/>
</g>
<defs>
<clipPath id="clip0_4_315">
<rect width="10.4149" height="10.4149" fill="white" transform="translate(0 0.12323)"/>
</clipPath>
</defs>
</svg>
