<svg width="14" height="14" viewBox="0 0 14 14" fill="none" xmlns="http://www.w3.org/2000/svg">
<g clip-path="url(#clip0_1632_55052)">
<path d="M11.2968 1.07417H10.7747V0.545653C10.7747 0.400548 10.7171 0.261387 10.6145 0.158782C10.512 0.0561779 10.3729 -0.00146484 10.2278 -0.00146484C10.0828 -0.00146484 9.9437 0.0561779 9.84114 0.158782C9.73858 0.261387 9.68096 0.400548 9.68096 0.545653V1.07417H4.31794V0.545653C4.31794 0.400548 4.26032 0.261387 4.15777 0.158782C4.05521 0.0561779 3.91611 -0.00146484 3.77107 -0.00146484C3.62603 -0.00146484 3.48693 0.0561779 3.38437 0.158782C3.28181 0.261387 3.22419 0.400548 3.22419 0.545653V1.07417H2.70284C1.98622 1.07504 1.2992 1.36022 0.792472 1.86718C0.285746 2.37413 0.000685232 3.06145 -0.000183105 3.77839V11.2947C0.000685232 12.0116 0.285746 12.6989 0.792472 13.2059C1.2992 13.7129 1.98622 13.998 2.70284 13.9989H11.2968C12.0134 13.998 12.7004 13.7129 13.2072 13.2059C13.7139 12.6989 13.9989 12.0116 13.9998 11.2947V3.77839C13.9989 3.06145 13.7139 2.37413 13.2072 1.86718C12.7004 1.36022 12.0134 1.07504 11.2968 1.07417ZM2.70284 2.1684H3.22492V3.23492C3.22492 3.38002 3.28254 3.51918 3.3851 3.62179C3.48766 3.72439 3.62676 3.78204 3.7718 3.78204C3.91684 3.78204 4.05594 3.72439 4.15849 3.62179C4.26105 3.51918 4.31867 3.38002 4.31867 3.23492V2.16804H9.68133V3.23455C9.68133 3.37966 9.73894 3.51882 9.8415 3.62142C9.94406 3.72403 10.0832 3.78167 10.2282 3.78167C10.3732 3.78167 10.5123 3.72403 10.6149 3.62142C10.7175 3.51882 10.7751 3.37966 10.7751 3.23455V2.16804H11.2972C11.7238 2.16871 12.1327 2.33862 12.4343 2.64049C12.7359 2.94236 12.9056 3.35157 12.9061 3.77839V4.3007H1.09357V3.77839C1.09405 3.35145 1.26379 2.94213 1.56555 2.64023C1.86731 2.33834 2.27645 2.16852 2.7032 2.16804L2.70284 2.1684ZM11.2968 12.905H2.70284C2.27615 12.9045 1.8671 12.7346 1.56542 12.4327C1.26374 12.1308 1.09405 11.7216 1.09357 11.2947V5.39457H12.9061V11.2947C12.9056 11.7216 12.7358 12.131 12.4341 12.4328C12.1323 12.7347 11.7232 12.9046 11.2964 12.905H11.2968ZM4.8557 7.54584C4.8557 7.69094 4.79809 7.83011 4.69553 7.93271C4.59297 8.03531 4.45387 8.09296 4.30883 8.09296H3.23404C3.089 8.09296 2.9499 8.03531 2.84734 7.93271C2.74478 7.83011 2.68716 7.69094 2.68716 7.54584C2.68716 7.40073 2.74478 7.26157 2.84734 7.15897C2.9499 7.05636 3.089 6.99872 3.23404 6.99872H4.30919C4.45423 6.99872 4.59333 7.05636 4.69589 7.15897C4.79845 7.26157 4.85607 7.40073 4.85607 7.54584H4.8557ZM11.3121 7.54584C11.3121 7.69094 11.2545 7.83011 11.1519 7.93271C11.0494 8.03531 10.9103 8.09296 10.7652 8.09296H9.69044C9.5454 8.09296 9.4063 8.03531 9.30374 7.93271C9.20118 7.83011 9.14357 7.69094 9.14357 7.54584C9.14357 7.40073 9.20118 7.26157 9.30374 7.15897C9.4063 7.05636 9.5454 6.99872 9.69044 6.99872H10.7656C10.9106 6.99872 11.0497 7.05636 11.1523 7.15897C11.2549 7.26157 11.3125 7.40073 11.3125 7.54584H11.3121ZM8.08081 7.54584C8.08081 7.69094 8.02319 7.83011 7.92063 7.93271C7.81807 8.03531 7.67897 8.09296 7.53393 8.09296H6.45914C6.3141 8.09296 6.175 8.03531 6.07244 7.93271C5.96988 7.83011 5.91226 7.69094 5.91226 7.54584C5.91226 7.40073 5.96988 7.26157 6.07244 7.15897C6.175 7.05636 6.3141 6.99872 6.45914 6.99872H7.5343C7.67934 6.99872 7.81844 7.05636 7.92099 7.15897C8.02355 7.26157 8.08117 7.40073 8.08117 7.54584H8.08081ZM4.8557 10.7724C4.8557 10.9175 4.79809 11.0566 4.69553 11.1592C4.59297 11.2619 4.45387 11.3195 4.30883 11.3195H3.23404C3.089 11.3195 2.9499 11.2619 2.84734 11.1592C2.74478 11.0566 2.68716 10.9175 2.68716 10.7724C2.68716 10.6273 2.74478 10.4881 2.84734 10.3855C2.9499 10.2829 3.089 10.2253 3.23404 10.2253H4.30919C4.45423 10.2253 4.59333 10.2829 4.69589 10.3855C4.79845 10.4881 4.85607 10.6273 4.85607 10.7724H4.8557ZM11.3121 10.7724C11.3121 10.9175 11.2545 11.0566 11.1519 11.1592C11.0494 11.2619 10.9103 11.3195 10.7652 11.3195H9.69044C9.5454 11.3195 9.4063 11.2619 9.30374 11.1592C9.20118 11.0566 9.14357 10.9175 9.14357 10.7724C9.14357 10.6273 9.20118 10.4881 9.30374 10.3855C9.4063 10.2829 9.5454 10.2253 9.69044 10.2253H10.7656C10.9106 10.2253 11.0497 10.2829 11.1523 10.3855C11.2549 10.4881 11.3125 10.6273 11.3125 10.7724H11.3121ZM8.08081 10.7724C8.08081 10.9175 8.02319 11.0566 7.92063 11.1592C7.81807 11.2619 7.67897 11.3195 7.53393 11.3195H6.45914C6.3141 11.3195 6.175 11.2619 6.07244 11.1592C5.96988 11.0566 5.91226 10.9175 5.91226 10.7724C5.91226 10.6273 5.96988 10.4881 6.07244 10.3855C6.175 10.2829 6.3141 10.2253 6.45914 10.2253H7.5343C7.67934 10.2253 7.81844 10.2829 7.92099 10.3855C8.02355 10.4881 8.08117 10.6273 8.08117 10.7724H8.08081Z" fill="#7A7A7A"/>
</g>
<defs>
<clipPath id="clip0_1632_55052">
<rect width="14" height="14" fill="white"/>
</clipPath>
</defs>
</svg>
