<svg width="26" height="24" viewBox="0 0 26 24" fill="none" xmlns="http://www.w3.org/2000/svg">
<path d="M19.9275 15.6753V12C19.9275 8.44261 16.9135 5.54914 13.2079 5.54914C9.50225 5.54914 6.48821 8.44261 6.48821 12V18.4509H22.8167V12C22.8167 6.91313 18.5067 2.77552 13.2079 2.77552C7.90903 2.77552 3.59903 6.91503 3.59903 12V21.2245H25.7079V12C25.7079 5.38364 20.0999 0 13.2079 0C6.31582 0 0.707855 5.38364 0.707855 12V24H25.7059V22.1966H2.58642V12C2.58642 6.37857 7.35022 1.80342 13.2079 1.80342C19.0655 1.80342 23.8293 6.37666 23.8293 12V19.4211H5.47759V12C5.47759 7.90805 8.94541 4.57895 13.2098 4.57895C17.4743 4.57895 20.9401 7.90805 20.9401 12V16.6474H8.36876V12C8.36876 9.43754 10.5406 7.35257 13.2098 7.35257C15.8791 7.35257 18.0509 9.43754 18.0509 12V13.8719H17.0383V12C17.0383 9.9721 15.3203 8.32467 13.2098 8.32467C11.0994 8.32467 9.38137 9.974 9.38137 12V15.6753H11.2599V12C11.2599 10.967 12.1338 10.1262 13.2098 10.1262C14.2859 10.1262 15.1597 10.967 15.1597 12V15.6753H19.9295H19.9275Z" fill="#4A4A4A"/>
</svg>
