<svg width="29" height="24" viewBox="0 0 29 24" fill="none" xmlns="http://www.w3.org/2000/svg">
<path d="M24.6417 7.91429V1.86758H19.6412V4.06743L14.3539 0L0 11.0423L3.00726 14.9514L4.47972 13.8186V24H12.9754V16.5402H16.0677V24H24.2283V13.8186L25.7008 14.9514L28.7079 11.0423L24.6417 7.91429ZM22.5442 22.3159H17.7517V14.8561H11.2913V22.3159H6.16372V12.5231L14.3539 6.22282L22.5441 12.5231L22.5442 22.3159ZM25.3927 12.5897L14.3539 4.09771L3.31514 12.5897L2.36161 11.3503L14.3539 2.12472L21.3253 7.48771V3.55164H22.9577V8.74351L26.3462 11.3503L25.3927 12.5897Z" fill="#4A4A4A"/>
</svg>
