<svg width="148" height="136" viewBox="0 0 148 136" fill="none" xmlns="http://www.w3.org/2000/svg">
<g clip-path="url(#clip0_1662_69695)">
<path d="M8.36487 126.501C10.2003 126.501 11.6045 126.101 12.5774 125.301C13.5503 124.501 14.0417 123.321 14.0417 121.751C14.0417 120.181 13.5503 119.081 12.5774 118.301C11.6045 117.521 10.2003 117.131 8.36487 117.131H2.92871V126.501H8.36487ZM13.801 135.78L9.55842 129.091C9.06696 129.13 8.67579 129.15 8.36487 129.15H2.92871V135.78H0V114.482H8.36487C11.0729 114.482 13.1591 115.102 14.6335 116.351C16.1079 117.601 16.8501 119.371 16.8501 121.661C16.8501 123.381 16.4489 124.841 15.6465 126.011C14.8441 127.191 13.6907 128.041 12.1862 128.571L17.161 135.78H13.801Z" fill="#76777A"/>
<path d="M45.0841 117.601C44.0009 117.121 42.8976 116.891 41.7542 116.891C40.2497 116.891 38.8656 117.251 37.6018 117.981C36.3381 118.711 35.3451 119.701 34.613 120.951C33.8808 122.201 33.5097 123.571 33.5097 125.071C33.5097 126.571 33.8708 127.921 34.613 129.18C35.3451 130.44 36.3381 131.43 37.6018 132.16C38.8656 132.89 40.2497 133.26 41.7542 133.26C42.8675 133.26 43.9708 133.03 45.054 132.58C46.1272 132.12 47.0901 131.5 47.9225 130.71L49.6978 132.63C48.6146 133.69 47.3709 134.51 45.9467 135.11C44.5224 135.71 43.0781 136.01 41.6138 136.01C39.5777 136.01 37.7122 135.53 36.0272 134.56C34.3422 133.59 33.0082 132.28 32.0253 130.62C31.0524 128.961 30.5609 127.121 30.5609 125.111C30.5609 123.101 31.0524 121.301 32.0453 119.651C33.0282 118.001 34.3823 116.691 36.0873 115.741C37.7924 114.792 39.678 114.312 41.7341 114.312C43.2185 114.312 44.6628 114.592 46.057 115.152C47.4511 115.711 48.6547 116.491 49.6777 117.511L47.9426 119.611C47.1302 118.761 46.1773 118.091 45.1042 117.621" fill="#76777A"/>
<path d="M82.074 135.78H78.5335L71.0212 125.961L67.0895 130.22V135.78H64.1608V114.482H67.0895V126.441L78.0119 114.482H81.5224L73.0672 123.671L82.074 135.78Z" fill="#76777A"/>
<path d="M108.924 132.1C110.137 131.41 111.09 130.46 111.792 129.24C112.494 128.021 112.845 126.661 112.845 125.161C112.845 123.661 112.494 122.271 111.782 121.051C111.07 119.831 110.097 118.871 108.864 118.171C107.63 117.471 106.266 117.121 104.761 117.121H99.0545V133.13H104.882C106.366 133.13 107.72 132.79 108.924 132.1ZM110.448 115.861C112.123 116.781 113.447 118.061 114.4 119.681C115.353 121.301 115.834 123.121 115.834 125.131C115.834 127.141 115.353 128.951 114.38 130.58C113.417 132.2 112.083 133.48 110.398 134.4C108.703 135.32 106.818 135.79 104.721 135.79H96.1157V114.492H104.812C106.888 114.492 108.763 114.952 110.448 115.871" fill="#76777A"/>
<path d="M134.5 131.69C135.583 132.8 137.088 133.35 139.003 133.35C140.919 133.35 142.383 132.8 143.457 131.69C144.54 130.58 145.071 129.05 145.071 127.081V114.482H148V127.081C148 129.86 147.198 132.04 145.603 133.62C144.008 135.2 141.802 135.99 138.993 135.99C136.185 135.99 133.948 135.2 132.333 133.62C130.729 132.04 129.926 129.86 129.926 127.081V114.482H132.855V127.081C132.855 129.05 133.397 130.59 134.49 131.69" fill="#76777A"/>
<path d="M104.621 12.6491C96.4468 4.48967 85.5644 0 74 0C62.4357 0 51.5533 4.48967 43.379 12.6491C35.2047 20.8085 30.6913 31.6477 30.6913 43.1768C30.6913 45.5667 30.8919 47.9165 31.263 50.2263C31.6241 52.4561 32.1657 54.636 32.8678 56.7558C34.8035 55.7159 36.7794 54.746 38.7954 53.856C38.1535 51.7562 37.6921 49.5764 37.4414 47.3365C37.2809 45.9666 37.2006 44.5767 37.2006 43.1668C37.2006 22.9383 53.7097 6.47952 74 6.47952C94.2904 6.47952 110.799 22.9383 110.799 43.1668C110.799 44.5767 110.719 45.9666 110.559 47.3365C110.489 47.3065 110.418 47.2765 110.348 47.2465C109.295 46.8066 108.242 46.3766 107.179 45.9766C107.259 45.0567 107.299 44.1168 107.299 43.1768C107.299 24.8782 92.3646 9.98927 74 9.98927C55.6354 9.98927 40.7111 24.8782 40.7111 43.1768C40.7111 44.1168 40.7512 45.0567 40.8314 45.9766C41.022 48.2165 41.4332 50.3963 42.045 52.4861C44.061 51.6862 46.1071 50.9663 48.1933 50.3163C49.3066 49.9663 50.43 49.6464 51.5633 49.3464C53.6495 48.7864 55.7759 48.3065 57.9222 47.9065C57.4809 46.4066 57.2402 44.8167 57.2402 43.1668C57.2402 42.5669 57.2703 41.9769 57.3305 41.397C58.2231 33.0076 65.3644 26.4481 74.0101 26.4481C82.6558 26.4481 89.797 33.0076 90.6897 41.397C89.4861 41.177 88.2825 40.987 87.0689 40.817C85.9556 34.6375 80.5295 29.9378 74.0101 29.9378C67.4907 29.9378 62.0746 34.6375 60.9512 40.817C60.8108 41.5769 60.7406 42.3669 60.7406 43.1568C60.7406 44.6067 60.9813 46.0066 61.4126 47.3065C63.6493 46.9865 65.906 46.7466 68.1928 46.5866C67.591 45.5767 67.2399 44.4067 67.2399 43.1468C67.2399 42.0469 67.5107 41.007 67.9822 40.0971C69.1055 37.9172 71.3823 36.4173 74 36.4173C76.6178 36.4173 78.9046 37.9172 80.0179 40.0971C80.4893 41.017 80.7501 42.0569 80.7501 43.1468C80.7501 44.4067 80.3991 45.5767 79.7973 46.5866C82.0841 46.7366 84.3408 46.9766 86.5774 47.3065C87.7509 47.4765 88.9144 47.6665 90.0678 47.8865C92.2142 48.2865 94.3305 48.7664 96.4267 49.3264C96.9683 47.3565 97.2692 45.2867 97.2692 43.1468C97.2692 43.0368 97.2692 42.9268 97.2692 42.8169C97.0887 30.1678 86.7178 19.9385 73.99 19.9385C61.2622 19.9385 50.8913 30.1678 50.7108 42.8169C49.5373 43.1168 48.3739 43.4368 47.2104 43.7868C47.2104 43.5768 47.2104 43.3668 47.2104 43.1468C47.2104 28.4279 59.2261 16.4488 73.99 16.4488C88.7539 16.4488 100.78 28.4279 100.78 43.1468C100.78 43.3568 100.78 43.5768 100.78 43.7868C100.73 46.0366 100.388 48.2165 99.8168 50.2963C101.903 50.9463 103.949 51.6662 105.965 52.4661C107.058 52.8961 108.142 53.3561 109.215 53.826C111.231 54.726 113.207 55.6859 115.142 56.7258C115.844 54.606 116.376 52.4162 116.747 50.1963C117.128 47.8865 117.319 45.5267 117.319 43.1468C117.319 31.6177 112.815 20.7685 104.631 12.6191" fill="#C10230"/>
<path d="M52.7368 59.3856C53.9705 59.0356 55.2042 58.7057 56.4579 58.4157C59.1058 57.7957 61.8038 57.3158 64.552 56.9758C67.6512 56.5958 70.8005 56.3958 74.0001 56.3958C77.1996 56.3958 80.3489 56.5958 83.4481 56.9758C86.1863 57.3158 88.8943 57.7957 91.5422 58.4157C92.7959 58.7057 94.0396 59.0356 95.2733 59.3856C97.4598 60.0156 99.6062 60.7355 101.712 61.5555C102.826 61.9854 103.919 62.4354 105.002 62.9154C107.008 63.8053 108.974 64.7652 110.89 65.8151C112.043 63.9553 113.046 62.0254 113.899 60.0256C111.983 58.9856 110.037 58.0257 108.031 57.1358C107.51 56.9058 106.978 56.6758 106.447 56.4458C105.895 56.2158 105.353 55.9959 104.802 55.7759C102.776 54.9759 100.73 54.246 98.6634 53.606C97.54 53.2561 96.4067 52.9361 95.2633 52.6361C93.1069 52.0662 90.9204 51.5862 88.7138 51.1962C87.4701 50.9762 86.2164 50.7862 84.9627 50.6163C81.3519 50.1463 77.7011 49.9063 74.0101 49.9063C70.3191 49.9063 66.6582 50.1463 63.0475 50.6163C61.7938 50.7762 60.54 50.9762 59.2963 51.1962C57.0898 51.5862 54.9133 52.0662 52.7469 52.6361C51.6035 52.9361 50.4701 53.2561 49.3468 53.606C47.2806 54.246 45.2245 54.9659 43.1985 55.7759C42.6468 55.9959 42.0952 56.2158 41.5536 56.4458C41.022 56.6658 40.5005 56.8958 39.9689 57.1358C37.9729 58.0257 36.0171 58.9956 34.1014 60.0256C34.954 62.0254 35.957 63.9653 37.1104 65.8151C37.7222 66.7951 38.3741 67.765 39.0662 68.6949C40.36 70.4548 41.8043 72.1247 43.379 73.6946C43.3991 73.7146 43.4191 73.7346 43.4392 73.7546C44.3218 74.6345 45.2446 75.4744 46.1874 76.2644C48.1432 77.9042 50.2194 79.3541 52.4059 80.6041C58.9052 84.3438 66.2972 86.3336 74.0001 86.3336C81.703 86.3336 89.0949 84.3438 95.5943 80.6041C97.7707 79.3441 99.8569 77.8943 101.803 76.2644C102.746 75.4744 103.668 74.6345 104.561 73.7546C104.581 73.7346 104.601 73.7146 104.621 73.6946C106.196 72.1247 107.64 70.4548 108.934 68.6949C106.988 67.645 104.982 66.6851 102.936 65.8051C102.806 65.7451 102.675 65.6952 102.545 65.6352C101.552 65.2152 100.539 64.8152 99.526 64.4452C97.2692 63.6053 94.9925 62.8854 92.6756 62.2854C91.2915 61.9254 89.8973 61.5955 88.4932 61.3155C83.7591 60.3655 78.9147 59.8956 74.0001 59.8956C69.0854 59.8956 64.241 60.3755 59.507 61.3155C58.1028 61.5955 56.7087 61.9154 55.3245 62.2854C53.0076 62.8954 50.7309 63.6153 48.4742 64.4452C50.0489 66.3151 51.8241 68.015 53.7699 69.5049C56.6485 68.5949 59.6073 67.865 62.6463 67.345C66.3373 66.7151 70.1386 66.3751 74.0101 66.3751C77.8816 66.3751 81.6829 66.7051 85.3739 67.345C88.4029 67.865 91.3717 68.5849 94.2503 69.5049C95.5541 69.9248 96.848 70.3748 98.1117 70.8648C97.0787 71.7647 95.9854 72.6046 94.8521 73.3846C92.2443 75.1745 89.4059 76.6444 86.3769 77.7243C82.5053 79.1042 78.343 79.8641 74.0001 79.8641C69.6571 79.8641 65.4948 79.1042 61.6233 77.7243C58.5943 76.6444 55.7558 75.1745 53.1481 73.3846C52.0147 72.6046 50.9315 71.7647 49.8884 70.8648C48.1231 69.3349 46.5083 67.645 45.054 65.8051C44.3218 64.8752 43.6298 63.9053 42.9879 62.9054C44.0711 62.4254 45.1744 61.9754 46.2776 61.5455C48.3839 60.7355 50.5303 60.0056 52.7168 59.3756" fill="#76777A"/>
<path d="M74 69.8749C68.3833 69.8749 62.887 70.5948 57.5612 72.0247C62.4156 74.7845 68.0223 76.3644 74 76.3644C79.9778 76.3644 85.5845 74.7845 90.4389 72.0247C85.1131 70.5948 79.6067 69.8749 74 69.8749Z" fill="#76777A"/>
</g>
<defs>
<clipPath id="clip0_1662_69695">
<rect width="148" height="136" fill="white"/>
</clipPath>
</defs>
</svg>
