<svg width="162" height="160" viewBox="0 0 162 160" fill="none" xmlns="http://www.w3.org/2000/svg">
<path d="M0 5.98C0 2.67733 2.67734 0 5.98 0H162V160H5.98C2.67734 160 0 157.323 0 154.02V5.98Z" fill="#E8E8E8"/>
<g clip-path="url(#clip0_1861_37398)">
<path d="M4.19617e-05 93.5422L4.20016e-05 90.1937L53.1903 90.1937C53.6627 91.3441 54.2048 92.4624 54.8115 93.5422L4.19617e-05 93.5422Z" fill="white"/>
<path d="M5.72205e-05 98.6953L5.72604e-05 95.3468L55.9097 95.3468C56.6798 96.5215 57.531 97.6411 58.4518 98.6953L5.72205e-05 98.6953Z" fill="white"/>
<path d="M3.05176e-05 103.847L3.05575e-05 100.498L60.1592 100.498C61.4283 101.732 62.8039 102.854 64.2681 103.847L3.05176e-05 103.847Z" fill="white"/>
<path d="M81 109L0 109L3.99312e-08 105.651L67.2952 105.651C68.002 106.018 68.724 106.359 69.4599 106.668C73.1065 108.21 77.0748 109.001 81 109Z" fill="white"/>
<path d="M80.9924 105.651L67.2965 105.651C66.2528 105.11 65.242 104.508 64.2693 103.848L71.4016 103.848C74.4566 105.04 77.7359 105.651 80.9937 105.651L80.9924 105.651Z" fill="white"/>
<path d="M56.2351 88.8843C56.4162 89.3255 56.61 89.7628 56.814 90.1937L53.1915 90.1937C53.1877 90.186 53.1851 90.1783 53.1813 90.1706C52.9191 89.5332 52.6797 88.8843 52.4619 88.229L55.9767 88.229C56.0603 88.4483 56.1465 88.6676 56.2364 88.8843L56.2351 88.8843Z" fill="white"/>
<path d="M105.765 88.8843C105.855 88.6676 105.941 88.4483 106.024 88.229L109.539 88.229C109.321 88.8843 109.082 89.532 108.82 90.1706C108.816 90.1783 108.814 90.186 108.81 90.1937L105.187 90.1937C105.391 89.7628 105.585 89.3268 105.766 88.8843L105.765 88.8843Z" fill="white"/>
<path d="M59.9945 95.3455L55.9097 95.3455C55.5246 94.7568 55.1573 94.1566 54.8128 93.5423L58.6975 93.5423C59.1053 94.1617 59.5385 94.7619 59.9945 95.3455Z" fill="white"/>
<path d="M65.3092 100.498L60.1592 100.498C60.0059 100.35 59.8539 100.2 59.7032 100.047C59.2713 99.6097 58.8545 99.1582 58.4505 98.694L63.1015 98.694C63.8045 99.3339 64.5416 99.9354 65.3092 100.497L65.3092 100.498Z" fill="white"/>
<path d="M58.6962 93.5422L54.8115 93.5422C54.2048 92.4624 53.6626 91.3428 53.1902 90.1937L56.8127 90.1937C57.3612 91.3543 57.9907 92.4739 58.6949 93.5422L58.6962 93.5422Z" fill="white"/>
<path d="M62.0452 97.6809C62.3884 98.0284 62.7418 98.3657 63.1028 98.6953L58.4518 98.6953C57.5297 97.6398 56.6798 96.5202 55.9097 95.3468L59.9945 95.3468C60.6341 96.1637 61.3181 96.9447 62.0452 97.6822L62.0452 97.6809Z" fill="white"/>
<path d="M70.7303 103.576C70.952 103.67 71.1762 103.76 71.4004 103.848L64.2681 103.848C62.8039 102.854 61.4283 101.732 60.1592 100.5L65.3092 100.5C66.9888 101.731 68.8102 102.77 70.7303 103.578L70.7303 103.576Z" fill="white"/>
<path d="M81 105.651L81 109C77.0748 109.001 73.1065 108.21 69.4599 106.668C68.724 106.359 68.0033 106.018 67.2952 105.651L80.9911 105.651C80.9911 105.651 80.9962 105.651 80.9987 105.651L81 105.651Z" fill="white"/>
<path d="M65.6461 94.0399C66.0957 94.4965 66.5669 94.9312 67.0546 95.3455L62.32 95.3455C61.8108 94.7671 61.3282 94.1656 60.8735 93.5423L65.1724 93.5423C65.3282 93.7103 65.4852 93.877 65.6461 94.0399Z" fill="white"/>
<path d="M99.3837 90.1937C99.7789 89.5576 100.141 88.9023 100.47 88.229L104.104 88.229C103.83 88.8971 103.524 89.5525 103.194 90.1937L99.3837 90.1937Z" fill="white"/>
<path d="M62.6163 90.1937L58.8064 90.1937C58.4758 89.5525 58.1705 88.8971 57.8957 88.229L61.5296 88.229C61.8589 88.9023 62.2211 89.5576 62.6163 90.1937Z" fill="white"/>
<path d="M80.9392 100.497L68.5846 100.497C67.6511 99.9547 66.7544 99.3519 65.8982 98.694L72.4022 98.694C72.4972 98.7351 72.5922 98.7787 72.6872 98.8184C75.2939 99.9201 78.1185 100.488 80.9392 100.497Z" fill="white"/>
<path d="M65.1711 93.5422L60.8723 93.5422C60.0996 92.4829 59.408 91.362 58.8064 90.1937L62.6164 90.1937C63.3599 91.3889 64.2174 92.5124 65.1711 93.5422Z" fill="white"/>
<path d="M72.401 98.6953L65.8969 98.6953C64.9824 97.9925 64.1148 97.2294 63.3054 96.4074C62.9659 96.0637 62.6379 95.7097 62.32 95.3468L67.0546 95.3468C68.6657 96.7164 70.4706 97.8502 72.4022 98.6953L72.401 98.6953Z" fill="white"/>
<path d="M81 103.847C77.7309 103.847 74.4427 103.19 71.4155 101.91C70.4428 101.501 69.4966 101.028 68.5834 100.497L81 100.497L81 103.846L81 103.847Z" fill="white"/>
<path d="M80.9316 95.3455L70.0236 95.3455C69.2129 94.8017 68.4416 94.1989 67.717 93.5423L73.5257 93.5423C73.8918 93.7295 74.2629 93.9027 74.6416 94.0617C76.6277 94.8992 78.7683 95.3326 80.9316 95.3442L80.9316 95.3455Z" fill="white"/>
<path d="M69.0482 90.1937L64.7607 90.1937C64.3174 89.5627 63.9096 88.9061 63.5397 88.229L67.4383 88.229C67.9247 88.9228 68.463 89.5807 69.0482 90.1937Z" fill="white"/>
<path d="M94.5617 88.229L98.4603 88.229C98.0905 88.9061 97.6826 89.5627 97.2393 90.1937L92.9518 90.1937C93.5357 89.5807 94.0753 88.9228 94.5617 88.229Z" fill="white"/>
<path d="M69.2471 90.4002C70.4998 91.6698 71.9513 92.7356 73.527 93.5422L67.7183 93.5422C67.4409 93.2909 67.1698 93.0331 66.9064 92.7663C66.1211 91.9712 65.4042 91.1094 64.7595 90.1937L69.047 90.1937C69.1128 90.2629 69.1787 90.3322 69.2458 90.4002L69.2471 90.4002Z" fill="white"/>
<path d="M81 98.6953C78.387 98.6953 75.779 98.1721 73.3699 97.1551C72.2008 96.6626 71.0786 96.0547 70.0223 95.3468L80.9987 95.3468L80.9987 98.6953L81 98.6953Z" fill="white"/>
<path d="M69.6917 88.229L74.6138 88.229C75.2408 88.6535 75.9057 89.0164 76.596 89.3062C77.9842 89.8911 79.4687 90.1912 80.9988 90.1937L71.6778 90.1937C71.2699 89.859 70.8773 89.5025 70.5061 89.1267C70.2224 88.8394 69.9514 88.5393 69.6904 88.229L69.6917 88.229Z" fill="white"/>
<path d="M85.4028 89.3049C86.0931 89.0151 86.7581 88.6534 87.3851 88.2276L92.3071 88.2276C92.0475 88.538 91.7764 88.8368 91.4914 89.1254C91.119 89.5024 90.7277 89.8577 90.3198 90.1924L80.9988 90.1924C82.5289 90.1885 84.0133 89.8897 85.4015 89.3049L85.4028 89.3049Z" fill="white"/>
<path d="M81 93.5422C79.0431 93.5397 77.1166 93.1524 75.3256 92.397C74.0184 91.8468 72.786 91.1004 71.679 90.1924L81 90.1924L81 93.541L81 93.5422Z" fill="white"/>
<path d="M107.814 78.4949C107.818 74.9552 107.129 71.3835 105.779 68.0965C104.434 64.8057 102.44 61.7995 99.9599 59.291C97.4799 56.7825 94.5097 54.7703 91.2608 53.4108C88.0157 52.0463 84.4933 51.3486 80.9999 51.3499L80.9999 48.0013C84.9163 48 88.8795 48.7836 92.5261 50.3175C96.1778 51.8462 99.5128 54.1059 102.297 56.9235C105.082 59.7399 107.32 63.1154 108.834 66.8153C110.352 70.5114 111.128 74.5295 111.121 78.5C111.121 81.7845 110.583 85.0958 109.538 88.2302L106.023 88.2302C107.204 85.1317 107.813 81.8037 107.813 78.4975L107.814 78.4949Z" fill="white"/>
<path d="M53.1661 66.8128C54.6797 63.1128 56.9179 59.7373 59.7031 56.921C62.4872 54.1047 65.8234 51.8436 69.4738 50.3149C73.1217 48.7811 77.0836 47.9975 81 47.9988L81 51.3473C77.5067 51.3473 73.9842 52.045 70.7392 53.4083C67.4903 54.7677 64.5201 56.7812 62.04 59.2884C59.56 61.797 57.5664 64.8031 56.2212 68.094C54.871 71.3823 54.182 74.9527 54.1858 78.4923C54.1858 81.7986 54.795 85.1266 55.9755 88.2251L52.4606 88.2251C51.4157 85.0907 50.8786 81.7793 50.8774 78.4949C50.8723 74.5243 51.6462 70.5063 53.1649 66.8102L53.1661 66.8128Z" fill="white"/>
<path d="M72.6859 58.1714C70.0564 59.2718 67.6486 60.9031 65.636 62.9371C63.6246 64.9711 62.0096 67.4091 60.9216 70.0703C59.8298 72.7301 59.2712 75.6132 59.2738 78.4898C59.275 81.3677 59.8399 84.2481 60.933 86.9067C61.1167 87.3543 61.3155 87.7942 61.5283 88.2277L57.8944 88.2277C57.8894 88.2161 57.8843 88.2033 57.8792 88.1918C56.6189 85.1279 55.9679 81.8011 55.9666 78.4923C55.9628 75.1835 56.6063 71.8542 57.8665 68.7865C59.1218 65.7162 60.9824 62.9089 63.2991 60.5658C65.6157 58.2227 68.3896 56.3439 71.4206 55.0755C74.4503 53.802 77.7359 53.1505 81 53.1505L81 56.499C78.159 56.499 75.3129 57.0646 72.6847 58.1688L72.6859 58.1714Z" fill="white"/>
<path d="M101.066 86.9067C102.159 84.2481 102.724 81.3677 102.725 78.4898C102.727 75.6119 102.17 72.7301 101.077 70.0703C99.9891 67.4078 98.3741 64.9711 96.3627 62.9371C94.3514 60.9031 91.9423 59.2718 89.3128 58.1714C86.6845 57.0672 83.8397 56.5029 80.9987 56.5016L80.9987 53.153C84.264 53.153 87.5496 53.8045 90.5781 55.0781C93.6104 56.3464 96.3843 58.2253 98.6997 60.5684C101.016 62.9102 102.876 65.7175 104.132 68.7891C105.392 71.8568 106.036 75.1874 106.032 78.4949C106.032 81.8037 105.38 85.1292 104.119 88.1943C104.114 88.2059 104.109 88.2187 104.104 88.2302L100.47 88.2302C100.683 87.7967 100.882 87.3556 101.066 86.9093L101.066 86.9067Z" fill="white"/>
<path d="M74.6315 62.932C72.6213 63.772 70.7746 65.0224 69.2306 66.5832C67.6879 68.144 66.4517 70.0126 65.6208 72.044C64.7873 74.0767 64.3618 76.2698 64.3618 78.4846C64.3643 80.6995 64.7962 82.8938 65.6322 84.9291C66.1084 86.091 66.7164 87.1991 67.4371 88.2277L63.5385 88.2277C63.1825 87.5749 62.8608 86.9029 62.5784 86.2142C61.5752 83.7736 61.0572 81.133 61.0546 78.4872C61.0534 75.8414 61.5651 73.2008 62.5657 70.7602C63.5638 68.3184 65.0457 66.0805 66.8937 64.2119C68.7417 62.3433 70.9545 60.8454 73.3661 59.8361C75.7777 58.8229 78.3857 58.3048 81 58.3035L81 61.6521C78.81 61.6546 76.6416 62.0868 74.6315 62.9294L74.6315 62.932Z" fill="white"/>
<path d="M96.3666 84.9291C97.2026 82.8938 97.6345 80.6995 97.637 78.4846C97.637 76.2698 97.2114 74.0767 96.378 72.044C95.5471 70.0113 94.3109 68.144 92.7682 66.5832C91.2242 65.0224 89.3774 63.7733 87.3686 62.932C85.3585 62.0881 83.19 61.6559 81 61.6546L81 58.3061C83.6131 58.3073 86.2223 58.8255 88.6339 59.8386C91.0456 60.8479 93.2583 62.3459 95.1063 64.2145C96.9543 66.083 98.4363 68.321 99.4344 70.7628C100.436 73.2034 100.948 75.844 100.945 78.4898C100.944 81.1355 100.425 83.7762 99.4217 86.2167C99.1392 86.9054 98.8175 87.5774 98.4616 88.2302L94.563 88.2302C95.2837 87.2017 95.8916 86.0936 96.3679 84.9317L96.3666 84.9291Z" fill="white"/>
<path d="M76.5782 67.6925C75.1887 68.2735 73.9031 69.1417 72.8278 70.228C71.7537 71.3155 70.8962 72.6147 70.3224 74.0177C69.7474 75.422 69.4522 76.9276 69.451 78.4795C69.4535 80.0313 69.7524 81.5407 70.3313 82.9515C70.9088 84.3609 71.7689 85.6665 72.8468 86.7592C73.3876 87.3068 73.9816 87.7993 74.6137 88.2289L69.6916 88.2289C68.6885 87.0323 67.869 85.6806 67.2774 84.2378C66.5314 82.4218 66.1464 80.466 66.1438 78.4833C66.1438 76.5006 66.5238 74.5474 67.2673 72.7352C68.0083 70.9231 69.1115 69.2546 70.4909 67.8592C71.8702 66.4639 73.5206 65.3481 75.3141 64.5991C77.1076 63.8463 79.0392 63.4616 81.0012 63.459L81.0012 66.8076C79.4636 66.8114 77.9715 67.1102 76.5795 67.6938L76.5782 67.6925Z" fill="white"/>
<path d="M89.1519 86.7592C90.2298 85.6678 91.0898 84.361 91.6674 82.9515C92.2462 81.5408 92.5451 80.0313 92.5477 78.4795C92.5464 76.9277 92.2513 75.4221 91.6763 74.0178C91.1025 72.6147 90.2462 71.3156 89.1709 70.228C88.0955 69.1418 86.8099 68.2735 85.4204 67.6926C84.0284 67.1103 82.5376 66.8102 80.9987 66.8064L80.9987 63.4578C82.9607 63.4604 84.8923 63.8464 86.6858 64.5979C88.4781 65.3482 90.1284 66.4639 91.5091 67.858C92.8884 69.2533 93.9916 70.9218 94.7326 72.734C95.4761 74.5474 95.8561 76.4994 95.8561 78.4821C95.8535 80.4648 95.4685 82.4193 94.7225 84.2366C94.131 85.6794 93.3127 87.0311 92.3083 88.2277L87.3862 88.2277C88.0183 87.7993 88.6123 87.3068 89.1532 86.7579L89.1519 86.7592Z" fill="white"/>
<path d="M92.5401 106.668C93.276 106.359 93.9967 106.018 94.7048 105.651L162 105.651L162 109L81 109C84.9252 109.001 88.8935 108.21 92.5401 106.668Z" fill="white"/>
<path d="M81 109L81 105.651C81 105.651 81.0051 105.651 81.0076 105.651L94.7035 105.651C93.9967 106.018 93.2747 106.359 92.5388 106.668C88.8935 108.21 84.9252 109.001 81 109Z" fill="white"/>
<path d="M81 103.847C84.2691 103.847 87.5572 103.19 90.5844 101.91C91.5572 101.501 92.5034 101.028 93.4166 100.497L96.6908 100.497C95.0113 101.728 93.1899 102.767 91.2697 103.575C91.048 103.669 90.8238 103.759 90.5996 103.847L81 103.847Z" fill="white"/>
<path d="M162 100.498L162 103.847L97.732 103.847C99.1962 102.853 100.572 101.731 101.841 100.498L162 100.498Z" fill="white"/>
<path d="M91.2697 103.576C93.1911 102.768 95.0112 101.73 96.6908 100.498L101.841 100.498C100.572 101.732 99.1961 102.854 97.7319 103.847L90.5996 103.847C90.8238 103.76 91.048 103.67 91.2697 103.575L91.2697 103.576Z" fill="white"/>
<path d="M93.4166 100.498C92.5034 101.029 91.5585 101.501 90.5845 101.912C87.556 103.192 84.2679 103.848 81 103.848L81 100.5L93.4166 100.5L93.4166 100.498Z" fill="white"/>
<path d="M98.6959 96.4073C99.0354 96.0636 99.3634 95.7096 99.6813 95.3467L102.007 95.3467C101.367 96.1636 100.683 96.9447 99.9562 97.6821C99.6129 98.0296 99.2595 98.3669 98.8986 98.6965L96.1044 98.6965C97.0189 97.9937 97.8865 97.2307 98.6959 96.4086L98.6959 96.4073Z" fill="white"/>
<path d="M162 95.3454L162 98.694L103.548 98.694C104.47 97.6385 105.32 96.5189 106.09 95.3454L162 95.3454Z" fill="white"/>
<path d="M81 98.6953C83.613 98.6953 86.2197 98.1721 88.63 97.1551C89.7991 96.6626 90.9214 96.0547 91.9777 95.3468L94.9467 95.3468C93.3355 96.7164 91.5306 97.8502 89.599 98.6953L81 98.6953Z" fill="white"/>
<path d="M99.9562 97.6808C100.683 96.9434 101.367 96.1623 102.007 95.3454L106.092 95.3454C105.322 96.5202 104.47 97.6398 103.55 98.694L98.8986 98.694C99.2596 98.3657 99.6129 98.0284 99.9562 97.6795L99.9562 97.6808Z" fill="white"/>
<path d="M94.9467 95.3454L99.6813 95.3454C99.3621 95.7084 99.034 96.0623 98.6958 96.406C97.8852 97.2281 97.0176 97.9912 96.1044 98.694L89.6003 98.694C91.5319 97.8475 93.3368 96.7138 94.9479 95.3454L94.9467 95.3454Z" fill="white"/>
<path d="M91.9778 95.3454C90.9214 96.0533 89.8005 96.6625 88.6301 97.1537C86.221 98.1707 83.6131 98.6927 81 98.694L81 95.3454L91.9765 95.3454L91.9778 95.3454Z" fill="white"/>
<path d="M86.6744 92.397C87.9815 91.8469 89.214 91.1005 90.321 90.1925L92.953 90.1925C92.8871 90.2617 92.8213 90.331 92.7541 90.3989C91.5015 91.6686 90.0499 92.7343 88.4755 93.541L81.0101 93.541C82.9632 93.5372 84.8872 93.1499 86.6744 92.3958L86.6744 92.397Z" fill="white"/>
<path d="M94.283 93.5422C94.5604 93.2909 94.8315 93.0331 95.0936 92.7663C95.8789 91.9712 96.5958 91.1094 97.2406 90.1937L99.3837 90.1937C98.6402 91.3889 97.7839 92.5124 96.8289 93.5422L94.283 93.5422Z" fill="white"/>
<path d="M103.195 90.1937L105.187 90.1937C104.639 91.3543 104.009 92.4739 103.305 93.5422L101.129 93.5422C101.902 92.4829 102.593 91.362 103.195 90.1937Z" fill="white"/>
<path d="M162 90.1937L162 93.5422L107.189 93.5422C107.795 92.4624 108.337 91.3428 108.81 90.1937L162 90.1937Z" fill="white"/>
<path d="M105.186 90.1937L108.808 90.1937C108.336 91.3441 107.794 92.4624 107.187 93.5422L103.302 93.5422C104.007 92.4739 104.636 91.353 105.185 90.1937L105.186 90.1937Z" fill="white"/>
<path d="M99.3836 90.1937L103.194 90.1937C102.591 91.362 101.9 92.4829 101.128 93.5422L96.8289 93.5422C97.7839 92.5124 98.6401 91.3889 99.3836 90.1937Z" fill="white"/>
<path d="M92.7541 90.4002C92.8213 90.3322 92.8871 90.2629 92.953 90.1937L97.2405 90.1937C96.597 91.1094 95.8789 91.9712 95.0936 92.7663C94.8301 93.0331 94.5591 93.2909 94.2829 93.5422L88.4742 93.5422C90.0499 92.7343 91.5014 91.6698 92.7529 90.4002L92.7541 90.4002Z" fill="white"/>
<path d="M81 90.1937L90.321 90.1937C89.214 91.1017 87.9816 91.8481 86.6745 92.3983C84.8873 93.1524 82.9633 93.5397 81.0102 93.5436L81.0013 93.5436L81.0013 90.195L81 90.1937Z" fill="white"/>
</g>
<defs>
<clipPath id="clip0_1861_37398">
<rect width="61" height="162" fill="white" transform="matrix(1.19249e-08 -1 -1 -1.19249e-08 162 109)"/>
</clipPath>
</defs>
</svg>
