<svg width="301" height="147" viewBox="0 0 301 147" fill="none" xmlns="http://www.w3.org/2000/svg">
<g clip-path="url(#clip0_1662_69737)">
<path d="M11.9769 147L0 147L-2.80897e-06 82.7383L0.03882 80.9275L0.0970542 79.1166C0.116466 78.5162 0.1747 77.9061 0.213523 77.3057C0.31058 76.0953 0.37852 74.8848 0.543517 73.684C1.60144 64.0196 4.48404 54.5101 8.85161 45.8044C11.0451 41.4563 13.6074 37.302 16.5191 33.4091C19.4405 29.5259 22.6823 25.8945 26.2248 22.5729C33.31 15.9298 41.5599 10.5069 50.5474 6.67213C59.5349 2.84704 69.2309 0.629468 78.9269 0.116223C80.1401 0.0678066 81.3436 0.0387385 82.5568 0.0193751L83.3818 0.019375L83.9253 0.00970092L499 0.00968278L499 11.9595L82.6539 11.9595C81.6154 11.9886 80.5768 12.0176 79.5383 12.0563C71.2302 12.5018 62.9416 14.3901 55.2449 17.6633C47.558 20.9364 40.4825 25.5846 34.4165 31.2787C31.3786 34.1257 28.593 37.2342 26.0987 40.5557C23.6043 43.887 21.4108 47.4506 19.5376 51.1692C15.8009 58.616 13.3357 66.7504 12.4233 75.0204C12.2777 76.0565 12.2292 77.0927 12.1418 78.1289C12.103 78.6421 12.0545 79.165 12.0448 79.6783L11.9963 81.2277L11.9574 82.7771L11.9574 83.4065L11.9574 83.9488L11.9574 147L11.9769 147Z" fill="#C10230"/>
<path d="M30.3984 147L18.4215 147L18.4215 82.8061L18.4603 81.3923L18.4992 79.9785C18.5186 79.504 18.5574 79.0391 18.5865 78.5646C18.6641 77.6253 18.703 76.6763 18.8389 75.737C19.6638 68.2127 21.9059 60.8239 25.3029 54.0453C27.0111 50.6559 29.0007 47.4215 31.2719 44.3905C33.543 41.3595 36.0859 38.5318 38.8423 35.9463C44.3649 30.7751 50.7901 26.5433 57.7879 23.5607C64.776 20.5878 72.3174 18.864 79.8781 18.4573L82.7122 18.3798L83.3819 18.3798L83.9254 18.3702L499 18.3701L499 30.3199L83.9254 30.32C83.5663 30.32 83.2072 30.32 82.8092 30.32L80.4896 30.3781C74.3167 30.7073 68.1924 32.1115 62.4952 34.5324C56.7979 36.963 51.5568 40.4105 47.0534 44.6326C37.9882 53.0478 32.1066 64.7749 30.7478 77.054C30.6313 77.819 30.6119 78.5937 30.5439 79.3587C30.5148 79.7461 30.476 80.1237 30.4663 80.5111L30.4372 81.6634L30.4081 82.8158C30.4081 83.2032 30.4081 83.5518 30.4081 83.9198L30.4081 147L30.3984 147Z" fill="#C10230"/>
<path d="M48.8197 147L36.8429 147L36.8429 83.9585C36.8429 83.6002 36.8429 83.2225 36.8429 82.8836L36.872 81.8668L36.9011 80.85C36.9011 80.5111 36.9497 80.1721 36.9691 79.8332C37.037 79.1553 37.0467 78.4775 37.1535 77.8093C38.3473 67.0312 43.5107 56.747 51.4791 49.3486C55.439 45.6397 60.0396 42.6087 65.038 40.4783C70.0364 38.3575 75.4037 37.1277 80.8292 36.8275L82.8674 36.7791C83.1974 36.7694 83.5662 36.7694 83.9253 36.7694L499 36.7694L499 48.7192L83.1489 48.7192L82.9548 48.7289L81.431 48.7676C77.3837 48.9903 73.4334 49.9006 69.7259 51.4694C66.028 53.0478 62.6116 55.2945 59.661 58.0544C58.1858 59.4295 56.8367 60.9401 55.6235 62.5573C54.4199 64.1745 53.362 65.8982 52.4594 67.6897C50.6638 71.2824 49.47 75.1559 49.043 79.165C48.9556 79.6589 48.9556 80.1721 48.9071 80.666C48.8877 80.9178 48.8586 81.1696 48.8489 81.4213L48.8295 82.1767L48.81 82.932C48.81 83.0385 48.81 83.2322 48.81 83.4162L48.81 147L48.8197 147Z" fill="#C10230"/>
<path d="M67.2413 147L55.2644 147L55.2644 83.4162C55.2644 83.2322 55.2644 83.0289 55.2644 82.9611L55.2838 82.3413L55.2838 81.7215C55.2935 81.5182 55.3323 81.3148 55.342 81.1018C55.3906 80.6951 55.3712 80.2787 55.4488 79.8719C55.7885 76.6182 56.7688 73.4806 58.2246 70.5658C58.9526 69.1133 59.8164 67.7091 60.7967 66.3921C61.7866 65.0848 62.8834 63.855 64.0869 62.7316C66.4842 60.485 69.2697 58.6548 72.2688 57.3765C75.2776 56.1079 78.4708 55.3719 81.7707 55.188L220.106 55.1492L499 55.1492L499 67.099L220.106 67.099L82.3919 67.1184C80.4799 67.2346 78.694 67.651 76.9761 68.3676C75.2776 69.0939 73.6858 70.1494 72.2979 71.4374C71.6088 72.0862 70.9682 72.7931 70.3956 73.5387C69.8327 74.2941 69.3474 75.0978 68.93 75.9306C68.5127 76.7635 68.173 77.6156 67.911 78.4968C67.6392 79.3781 67.4451 80.2787 67.3577 81.218C67.3092 81.4407 67.3286 81.6925 67.2995 81.9249C67.2995 82.0411 67.2704 82.1573 67.2704 82.2832L67.2704 82.6415L67.251 83.0095L67.251 83.0579C67.251 83.0579 67.251 83.0966 67.251 83.1548L67.251 147L67.2413 147Z" fill="#C10230"/>
</g>
<defs>
<clipPath id="clip0_1662_69737">
<rect width="147" height="499" fill="white" transform="translate(0 147) rotate(-90)"/>
</clipPath>
</defs>
</svg>
